<?xml version="1.0" encoding="utf-8"?>
<!-- Generator: Adobe Illustrator 23.0.3, SVG Export Plug-In . SVG Version: 6.00 Build 0)  -->
<svg version="1.1" id="logo_x5F_runeo" xmlns="http://www.w3.org/2000/svg" xmlns:xlink="http://www.w3.org/1999/xlink" x="0px"
	 y="0px" viewBox="0 0 53.6 52.3" style="enable-background:new 0 0 53.6 52.3;" xml:space="preserve">
<style type="text/css">
	.st0{fill:#EE5353;stroke:#FFFFFF;stroke-width:5;}
	.st1{fill:#FFFFFF;stroke:#FFFFFF;}
	.st2{fill:#FFFFFF;}
</style>
<path id="fond" class="st0" d="M40.6,50.3H13c-2.9,0-5.7-1.1-7.8-3.2c-2.1-2-3.2-4.8-3.2-7.6V12.8c0-2.9,1.1-5.6,3.2-7.6
	C7.3,3.1,10.1,2,13,2h27.6c2.9,0,5.7,1.1,7.8,3.2c2.1,2,3.2,4.8,3.2,7.6v26.6c0,2.9-1.1,5.6-3.2,7.6C46.3,49.2,43.5,50.3,40.6,50.3z
	"/>
<path id="voiture" class="st1" d="M42.8,32.7c-0.3-0.4-0.7-0.7-1.2-0.7l-6-0.8l-5.5-4.8c-0.5-0.5-1.2-0.7-1.9-0.7h-8.7
	c-0.8,0-1.5,0.4-1.8,1.1l-2.5,4.2l-3,0.9c-0.9,0.3-1.5,1.3-1.3,2.2l0.4,3c0.2,1.3,1.2,2.3,2.5,2.3h2.6c0.3,1.6,1.6,2.9,3.3,2.9
	c1.7,0,3.1-1.2,3.3-2.9h10.6h0.5c0.3,1.6,1.6,2.9,3.3,2.9c1.7,0,3.1-1.2,3.3-2.9c1-0.1,1.8-0.8,1.9-1.8l0.5-3.3
	C43.3,33.6,43.1,33.1,42.8,32.7z"/>
<path id="accent" class="st2" d="M16.1,16.6c2.7-0.9,5.4-2,8-3.3c3-1.7,5.9-3.7,8.5-6l4.4,6c0,0-8.3,6.1-17,6.9"/>
</svg>
